<?xml version="1.0" standalone="no"?>
<!DOCTYPE svg PUBLIC "-//W3C//DTD SVG 20010904//EN"
 "http://www.w3.org/TR/2001/REC-SVG-20010904/DTD/svg10.dtd">
<svg version="1.0" xmlns="http://www.w3.org/2000/svg"
 width="255.000000pt" height="255.000000pt" viewBox="0 0 255.000000 255.000000"
 preserveAspectRatio="xMidYMid meet">
<metadata>
Created by potrace 1.14, written by Peter Selinger 2001-2017
</metadata>
<g transform="translate(0.000000,255.000000) scale(0.100000,-0.100000)"
fill="#000000" stroke="none">
<path d="M1240 2504 c-6 -14 -10 -70 -10 -124 0 -106 10 -130 54 -130 40 0 46
17 46 140 0 126 -5 140 -52 140 -21 0 -31 -6 -38 -26z"/>
<path d="M1528 2468 c-8 -7 -27 -42 -41 -78 -14 -36 -32 -82 -41 -102 -15 -36
-15 -38 7 -63 37 -42 63 -19 114 104 41 98 42 105 28 127 -17 26 -43 31 -67
12z"/>
<path d="M952 2458 c-7 -7 -12 -22 -12 -33 0 -20 64 -182 83 -212 14 -21 55
-15 72 10 14 22 13 30 -26 123 -22 54 -46 105 -51 112 -13 15 -50 16 -66 0z"/>
<path d="M1160 2163 c-118 -20 -246 -89 -340 -183 -122 -122 -179 -247 -187
-415 -9 -171 34 -287 190 -517 46 -68 91 -137 100 -154 12 -23 27 -34 57 -42
22 -5 40 -6 40 -1 0 28 -44 110 -121 224 -109 163 -142 225 -169 313 -58 191
-5 388 144 537 198 198 512 221 733 55 153 -117 227 -262 226 -450 0 -130 -46
-252 -149 -397 -135 -189 -155 -230 -158 -321 -3 -71 9 -92 50 -92 26 0 26 1
25 84 0 66 11 90 122 253 146 215 189 323 189 478 0 301 -227 569 -526 624
-58 11 -175 13 -226 4z"/>
<path d="M1173 1909 c-32 -6 -72 -43 -73 -65 0 -7 -17 -9 -47 -7 -39 4 -52 1
-70 -16 -27 -26 -38 -61 -29 -96 8 -32 63 -67 93 -60 21 5 41 -10 29 -22 -13
-13 -73 -5 -100 12 -16 11 -35 34 -42 52 -8 18 -17 33 -20 33 -17 0 -46 -24
-59 -50 -19 -36 -19 -57 0 -93 10 -21 12 -34 5 -47 -28 -52 12 -123 68 -123
72 0 113 55 90 119 -14 39 -4 56 17 28 25 -33 19 -99 -13 -136 -25 -28 -28
-38 -20 -64 15 -58 90 -85 142 -50 l26 16 0 -32 c0 -18 -11 -63 -23 -100 -22
-64 -22 -66 -4 -56 37 20 102 98 137 164 22 42 42 68 54 70 31 4 49 29 42 58
-6 26 -50 56 -81 56 -9 0 -15 6 -12 13 5 16 50 12 81 -8 14 -9 31 -32 38 -51
8 -22 19 -34 31 -34 28 0 77 54 77 85 0 50 -36 94 -77 95 -14 0 -23 6 -23 16
0 13 7 15 32 10 48 -10 86 -51 94 -104 7 -44 7 -44 42 -39 39 7 68 29 78 61 4
11 15 32 25 45 25 31 24 76 -1 101 -25 25 -32 25 -47 0 -14 -22 -83 -46 -107
-37 -28 11 -17 27 18 27 74 0 118 88 70 141 -37 41 -116 66 -159 50 -13 -5
-28 -2 -45 11 -32 24 -65 30 -96 18 -21 -9 -24 -15 -20 -42 3 -18 -2 -44 -10
-60 -18 -34 -40 -38 -29 -5 17 54 17 78 1 96 -22 24 -43 29 -83 20z m280 -109
c5 -21 15 -34 33 -41 19 -7 24 -13 17 -20 -12 -12 -53 -3 -53 12 0 5 -15 9
-34 9 -35 0 -62 21 -51 40 5 9 10 9 18 1 17 -17 37 -13 37 7 0 43 24 37 33 -8z
m-182 -110 c1 -5 3 -14 4 -20 1 -5 3 -15 4 -20 0 -6 12 -16 26 -22 14 -6 25
-17 25 -23 0 -16 -45 -8 -60 11 -6 7 -18 10 -26 7 -21 -8 -69 26 -55 40 7 7
16 5 31 -8 12 -11 21 -13 21 -7 1 7 3 17 4 22 1 6 3 15 4 20 0 6 6 10 11 10 6
0 11 -4 11 -10z m-125 -195 c10 -8 30 -15 44 -15 31 -1 64 -25 55 -40 -5 -9
-10 -9 -18 -1 -19 19 -46 13 -42 -9 4 -18 -3 -24 -22 -17 -5 1 -7 6 -5 11 5
14 -27 56 -43 56 -8 0 -15 7 -15 15 0 19 21 19 46 0z"/>
<path d="M967 810 c-40 -12 -57 -29 -57 -55 0 -34 42 -62 118 -78 499 -111
495 -110 536 -96 85 30 58 98 -49 124 -53 13 -447 99 -500 109 -11 2 -33 0
-48 -4z m570 -137 c20 -8 9 -29 -13 -25 -51 9 -94 24 -94 34 0 10 73 4 107 -9z"/>
<path d="M943 635 c-21 -9 -33 -21 -33 -34 0 -51 27 -71 125 -92 33 -7 65 -13
70 -15 6 -1 46 -9 90 -18 44 -9 98 -20 120 -26 145 -34 176 -40 214 -40 54 0
95 36 82 72 -9 25 -58 53 -106 61 -17 3 -93 20 -170 37 -77 17 -151 34 -165
36 -14 3 -50 12 -81 20 -70 17 -105 17 -146 -1z m601 -127 c28 -15 1 -28 -38
-18 -17 5 -44 11 -59 14 -15 4 -25 11 -22 17 8 11 89 2 119 -13z"/>
<path d="M964 479 c-60 -17 -71 -66 -24 -100 15 -11 134 -42 305 -79 246 -54
284 -60 317 -50 21 6 42 18 47 28 10 19 0 52 -20 69 -14 11 -136 45 -227 63
-26 5 -101 21 -167 35 -66 15 -131 29 -145 31 -14 3 -32 6 -40 8 -8 2 -29 0
-46 -5z m586 -146 c0 -13 -10 -13 -85 3 -40 8 -50 15 -36 24 19 11 121 -12
121 -27z"/>
<path d="M1030 296 c0 -67 62 -153 135 -187 61 -28 146 -25 206 8 52 28 107
89 93 103 -7 6 -94 27 -229 54 -48 10 -162 36 -182 42 -20 5 -23 3 -23 -20z
m74 -55 c17 -33 66 -77 96 -86 24 -8 27 -25 4 -25 -42 0 -112 64 -128 118 -11
32 11 28 28 -7z"/>
</g>
</svg>
