<svg xmlns="http://www.w3.org/2000/svg" width="32" height="32" fill-rule="evenodd" stroke-linejoin="round" stroke-miterlimit="2" clip-rule="evenodd"><path d="M29,30c0.552,0 1,-0.448 1,-1l0,-26c0,-0.552 -0.448,-1 -1,-1l-26,0c-0.552,0 -1,0.448 -1,1l0,26c0,0.552 0.448,1 1,1l26,0Zm-1,-2l-24,0c0,-0 0,-24 0,-24c0,-0 24,0 24,0l-0,24Z"/><path d="M3,10l26,0c0.552,0 1,-0.448 1,-1c0,-0.552 -0.448,-1 -1,-1l-26,0c-0.552,0 -1,0.448 -1,1c0,0.552 0.448,1 1,1Z"/><circle cx="25" cy="6" r="1"/><circle cx="22" cy="6" r="1"/><circle cx="19" cy="6" r="1"/><path d="M15 13c0-.552-.448-1-1-1l-7 0c-.552 0-1 .448-1 1l0 12c0 .552.448 1 1 1l7 0c.552 0 1-.448 1-1l0-12zm-2 1l0 10c0 0-5 0-5 0 0 0 0-10 0-10l5 0zM26 21c0-.552-.448-1-1-1l-7 0c-.552 0-1 .448-1 1l0 4c0 .552.448 1 1 1l7 0c.552 0 1-.448 1-1l0-4zm-2 1l0 2c0 0-5 0-5 0 0 0 0-2 0-2l5 0zM18 14l7 0c.552 0 1-.448 1-1 0-.552-.448-1-1-1l-7 0c-.552 0-1 .448-1 1 0 .552.448 1 1 1zM18 18l7 0c.552 0 1-.448 1-1 0-.552-.448-1-1-1l-7 0c-.552 0-1 .448-1 1 0 .552.448 1 1 1z"/></svg>